<?xml version="1.0" encoding="utf-8"?>
<!-- Generator: Adobe Illustrator 22.0.1, SVG Export Plug-In . SVG Version: 6.00 Build 0)  -->
<svg version="1.1" xmlns="http://www.w3.org/2000/svg" xmlns:xlink="http://www.w3.org/1999/xlink" x="0px" y="0px"
	 viewBox="0 0 464 659.4" style="enable-background:new 0 0 464 659.4;" xml:space="preserve">
<style type="text/css">
	.st0{display:none;}
	.st1{display:inline;}
	.st2{fill:url(#SVGID_1_);}
	.st3{fill:url(#SVGID_2_);}
	.st4{fill:url(#SVGID_3_);}
	.st5{fill:url(#SVGID_4_);}
	.st6{fill:url(#SVGID_5_);}
	.st7{fill:url(#SVGID_6_);}
	.st8{fill:url(#SVGID_7_);}
	.st9{fill:url(#SVGID_8_);}
</style>
<g id="Layer_1" class="st0">
	
		<image style="display:inline;overflow:visible;" width="5199" height="1211" xlink:href="Durango_new_logo_fulltextv2.png"  transform="matrix(1 0 0 1 -2222.2822 -306.0702)">
	</image>
</g>
<g id="Durango_text" class="st0">
	<g class="st1">
		<g>
			<linearGradient id="SVGID_1_" gradientUnits="userSpaceOnUse" x1="-2314.7603" y1="351.0136" x2="2885.0605" y2="351.0136">
				<stop  offset="0" style="stop-color:#00C6FB"/>
				<stop  offset="1" style="stop-color:#005BEA"/>
			</linearGradient>
			<path class="st2" d="M-2314.8,652.6v-907.5h321.5c322.3,0,483.5,147.5,483.5,442.3c0,141.3-44,254.2-131.9,338.6
				c-88,84.4-205.1,126.6-351.5,126.6H-2314.8z M-2110.4-88.5v575.2h101.3c88.6,0,158.1-26.6,208.5-79.7S-1725,281.5-1725,190
				c0-86.5-25-154.5-75-204.1c-50-49.6-120.1-74.4-210.4-74.4H-2110.4z"/>
			<linearGradient id="SVGID_2_" gradientUnits="userSpaceOnUse" x1="-2314.7603" y1="351.0136" x2="2885.0605" y2="351.0136">
				<stop  offset="0" style="stop-color:#00C6FB"/>
				<stop  offset="1" style="stop-color:#005BEA"/>
			</linearGradient>
			<path class="st3" d="M-763.1,652.6h-199.3v-98.7h-3.2c-49.4,76.4-115.4,114.5-198.1,114.5c-150.2,0-225.3-90.9-225.3-272.7V4.6
				h199.3v373.4c0,91.5,36.3,137.3,108.8,137.3c35.9,0,64.5-12.5,86.1-37.6s32.3-59.2,32.3-102.2V4.6h199.3V652.6z"/>
			<linearGradient id="SVGID_3_" gradientUnits="userSpaceOnUse" x1="-2314.7603" y1="351.0136" x2="2885.0605" y2="351.0136">
				<stop  offset="0" style="stop-color:#00C6FB"/>
				<stop  offset="1" style="stop-color:#005BEA"/>
			</linearGradient>
			<path class="st4" d="M-172,184.9c-24.1-13.1-52.1-19.6-84.2-19.6c-43.5,0-77.4,15.9-101.9,47.8s-36.7,75.2-36.7,130v309.5h-200
				V4.6h200v120.2h2.5C-360.6,37-303.7-6.8-221.4-6.8c21.1,0,37.5,2.5,49.4,7.6V184.9z"/>
			<linearGradient id="SVGID_4_" gradientUnits="userSpaceOnUse" x1="-2314.7603" y1="351.0136" x2="2885.0605" y2="351.0136">
				<stop  offset="0" style="stop-color:#00C6FB"/>
				<stop  offset="1" style="stop-color:#005BEA"/>
			</linearGradient>
			<path class="st5" d="M1261.9,652.6h-199.3V292.5c0-100.4-35.9-150.6-107.6-150.6c-34.6,0-63.1,13.3-85.4,39.9S836,242.1,836,283
				v369.6h-200V4.6h200v102.5h2.5c47.7-78.9,117.1-118.3,208.2-118.3c143.4,0,215.2,89,215.2,267V652.6z"/>
			<linearGradient id="SVGID_5_" gradientUnits="userSpaceOnUse" x1="-2314.7603" y1="351.0136" x2="2885.0605" y2="351.0136">
				<stop  offset="0" style="stop-color:#00C6FB"/>
				<stop  offset="1" style="stop-color:#005BEA"/>
			</linearGradient>
			<path class="st6" d="M2055.5,578.5c0,120.2-34.8,213.4-104.4,279.4c-69.6,66-170.4,99-302.5,99c-87.3,0-156.5-12.5-207.6-37.3
				V751.3c66.7,38.8,133.9,58.2,201.9,58.2c67.5,0,119.8-17.8,156.9-53.5c37.1-35.7,55.7-84.1,55.7-145.2v-51.3h-2.5
				c-45.6,72.6-112.9,108.8-201.9,108.8c-82.7,0-148.3-29.1-196.8-87.3s-72.8-136.3-72.8-234.1c0-109.7,27-196.8,81-261.3
				s125.1-96.8,213.3-96.8c78.9,0,137.9,30.4,177.2,91.1h2.5V4.6h200V578.5z M1858,341.2v-51.3c0-40.9-12.1-75.8-36.4-104.7
				c-24.3-28.9-55.8-43.4-94.6-43.4c-44.3,0-79.1,17.3-104.4,51.9s-38,83.3-38,146.2c0,54,12,96.7,36.1,128.1
				c24,31.4,57,47.1,98.7,47.1c41.3,0,74.8-15.9,100.3-47.8S1858,393.5,1858,341.2z"/>
			<linearGradient id="SVGID_6_" gradientUnits="userSpaceOnUse" x1="-2314.7603" y1="351.0136" x2="2885.0605" y2="351.0136">
				<stop  offset="0" style="stop-color:#00C6FB"/>
				<stop  offset="1" style="stop-color:#005BEA"/>
			</linearGradient>
			<path class="st7" d="M2531.3,668.4c-108,0-192.9-30.3-254.7-90.8s-92.7-142.7-92.7-246.5c0-107.2,32.1-191,96.2-251.5
				c64.1-60.5,150.8-90.8,260.1-90.8c107.6,0,191.9,30.3,253.1,90.8c61.2,60.5,91.8,140.6,91.8,240.2c0,107.6-31.5,192.6-94.6,255
				S2641,668.4,2531.3,668.4z M2536.4,141.9c-47.3,0-84,16.3-110.1,48.7s-39.2,78.5-39.2,138c0,124.5,50.2,186.7,150.6,186.7
				c95.8,0,143.6-63.9,143.6-191.7C2681.3,202.4,2633,141.9,2536.4,141.9z"/>
		</g>
	</g>
</g>
<g id="Layer_5">
	<linearGradient id="SVGID_7_" gradientUnits="userSpaceOnUse" x1="0" y1="48.2513" x2="463.999" y2="48.2513">
		<stop  offset="0" style="stop-color:#00C6FB"/>
		<stop  offset="1" style="stop-color:#005BEA"/>
	</linearGradient>
	<path class="st8" d="M415.7,96.5H48.3C21.7,96.5,0,74.8,0,48.3v0C0,21.7,21.7,0,48.3,0l367.5,0C442.3,0,464,21.7,464,48.3v0
		C464,74.8,442.3,96.5,415.7,96.5z"/>
	<g>
		<linearGradient id="SVGID_8_" gradientUnits="userSpaceOnUse" x1="232.1363" y1="659.429" x2="232.1363" y2="96.5039">
			<stop  offset="0" style="stop-color:#F83600"/>
			<stop  offset="1" style="stop-color:#F9D423"/>
		</linearGradient>
		<path class="st9" d="M459.6,623.7c-0.4-4.4-0.7-8.7-1.1-13.1c-1-11.9-2-23.7-3-35.6c-1.5-17.5-3-35.1-4.5-52.6
			c-1.8-21.4-3.7-42.8-5.5-64.2c-2-23.4-4-46.9-6-70.3c-2-23.7-4-47.3-6.1-71c-1.9-22.1-3.8-44.1-5.6-66.2
			c-1.6-18.6-3.2-37.3-4.8-55.9c-0.8-9.8-1.7-19.7-2.5-29.5h0.1c6.7,0,12.2-5.5,12.2-12.2v-44.4c0-6.7-5.5-12.2-12.2-12.2H43.4
			c-6.7,0-12.2,5.5-12.2,12.2v44.4c0,6.7,5.5,12.2,12.2,12.2h0.3c-0.5,6-1,12-1.5,18c-1.5,17.5-3,35.1-4.5,52.6
			c-1.8,21.4-3.7,42.8-5.5,64.2c-2,23.4-4,46.9-6,70.3c-2,23.7-4,47.3-6.1,71c-1.9,22.1-3.8,44.1-5.6,66.2
			c-1.6,18.6-3.2,37.3-4.8,55.9c-1.1,13.4-2.3,26.8-3.4,40.2c-0.5,6.4-1.1,12.7-1.6,19.1c0,0.3,0,0.5-0.1,0.8
			c-0.2,4.9,0.8,9.5,3.1,13.8c1.4,4.4,3.9,8.3,7.4,11.5c3.2,3.5,7.1,5.9,11.5,7.4c4.3,2.2,8.9,3.3,13.8,3.1
			c9.2-0.4,18.8-3.4,25.3-10.5c1.9-2.4,3.7-4.8,5.6-7.2c3.2-5.6,4.9-11.6,4.9-18c0.4-4.4,0.7-8.7,1.1-13.1c1-11.9,2-23.7,3-35.6
			c1.5-17.5,3-35.1,4.5-52.6c1.4-16.4,2.8-32.8,4.2-49.3c3.2,1.4,6.7,2.2,10.4,2.2h265.4c3.8,0,7.3-0.8,10.6-2.3
			c1,11.5,2,23,2.9,34.5c1.6,18.6,3.2,37.3,4.8,55.9c1.1,13.4,2.3,26.8,3.4,40.2c0.5,6.4,1.1,12.7,1.6,19.1c0,0.3,0,0.5,0.1,0.8
			c-0.2,4.9,0.8,9.5,3.1,13.8c1.4,4.4,3.9,8.3,7.4,11.5c3.2,3.5,7.1,5.9,11.5,7.4c4.3,2.2,8.9,3.3,13.8,3.1
			c9.2-0.4,18.8-3.4,25.3-10.5C455.2,642.3,460.4,633,459.6,623.7z M364.7,423.6H99.3c-2.1,0-4.2,0.3-6.2,0.8
			c1-12.1,2.1-24.3,3.1-36.4c2-23.7,4-47.3,6.1-71c1.9-22.1,3.8-44.1,5.6-66.2c1.6-18.6,3.2-37.3,4.8-55.9
			c0.8-9.8,1.7-19.7,2.5-29.5H349c0.5,6,1,12,1.5,18c1.5,17.5,3,35.1,4.5,52.6c1.8,21.4,3.6,42.8,5.5,64.2c2,23.4,4,46.9,6,70.3
			c1.5,18,3.1,36,4.6,54C369.1,423.9,366.9,423.6,364.7,423.6z"/>
	</g>
</g>
</svg>
