<?xml version="1.0" encoding="utf-8"?>
<!-- Generator: Adobe Illustrator 22.0.1, SVG Export Plug-In . SVG Version: 6.00 Build 0)  -->
<svg version="1.1" id="Layer_1" xmlns="http://www.w3.org/2000/svg" xmlns:xlink="http://www.w3.org/1999/xlink" x="0px" y="0px"
	 viewBox="0 0 24 24" style="enable-background:new 0 0 24 24;" xml:space="preserve">
<style type="text/css">
	.st0{fill:none;}
	.st1{fill:url(#SVGID_1_);}
	.st2{fill:url(#SVGID_2_);}
</style>
<path class="st0" d="M0,0h24v24H0V0z"/>
<linearGradient id="SVGID_1_" gradientUnits="userSpaceOnUse" x1="17.7256" y1="16.2744" x2="6.2744" y2="4.8231">
	<stop  offset="0" style="stop-color:#00C6FB"/>
	<stop  offset="1" style="stop-color:#005BEA"/>
</linearGradient>
<path class="st1" d="M12,2C8.1,2,5,5.1,5,9c0,5.3,7,13,7,13s7-7.8,7-13C19,5.1,15.9,2,12,2z M7,9c0-2.8,2.2-5,5-5s5,2.2,5,5
	c0,2.9-2.9,7.2-5,9.9C9.9,16.2,7,11.9,7,9z"/>
<linearGradient id="SVGID_2_" gradientUnits="userSpaceOnUse" x1="13.7678" y1="10.7678" x2="10.2322" y2="7.2322">
	<stop  offset="0" style="stop-color:#00C6FB"/>
	<stop  offset="1" style="stop-color:#005BEA"/>
</linearGradient>
<circle class="st2" cx="12" cy="9" r="2.5"/>
</svg>
