<?xml version="1.0" encoding="utf-8"?>
<!-- Generator: Adobe Illustrator 22.0.1, SVG Export Plug-In . SVG Version: 6.00 Build 0)  -->
<svg version="1.1" id="Layer_1" xmlns="http://www.w3.org/2000/svg" xmlns:xlink="http://www.w3.org/1999/xlink" x="0px" y="0px"
	 viewBox="0 0 24 24" style="enable-background:new 0 0 24 24;" xml:space="preserve">
<style type="text/css">
	.st0{fill:none;}
	.st1{fill:url(#SVGID_1_);}
</style>
<g>
	<rect class="st0" width="24" height="24"/>
	<linearGradient id="SVGID_1_" gradientUnits="userSpaceOnUse" x1="6.0187" y1="20.033" x2="16.2735" y2="2.2711">
		<stop  offset="0" style="stop-color:#E6E9F0"/>
		<stop  offset="1" style="stop-color:#EEF1F5"/>
	</linearGradient>
	<path class="st1" d="M12,3.2l7,3.1V11c0,4.5-3,8.7-7,9.9c-4-1.2-7-5.4-7-9.9V6.3L12,3.2 M12,1L3,5v6c0,5.5,3.8,10.7,9,12
		c5.2-1.3,9-6.5,9-12V5L12,1L12,1z M11,7h2v2h-2V7z M11,11h2v6h-2V11z"/>
</g>
</svg>
