<?xml version="1.0" encoding="utf-8"?>
<!-- Generator: Adobe Illustrator 22.0.1, SVG Export Plug-In . SVG Version: 6.00 Build 0)  -->
<svg version="1.1" id="Layer_1" xmlns="http://www.w3.org/2000/svg" xmlns:xlink="http://www.w3.org/1999/xlink" x="0px" y="0px"
	 viewBox="0 0 24 24" style="enable-background:new 0 0 24 24;" xml:space="preserve">
<style type="text/css">
	.st0{fill:none;}
	.st1{fill:url(#SVGID_1_);}
</style>
<path class="st0" d="M0,0h24v24H0V0z"/>
<linearGradient id="SVGID_1_" gradientUnits="userSpaceOnUse" x1="6.0367" y1="22.3288" x2="17.9633" y2="1.6712">
	<stop  offset="0" style="stop-color:#E6E9F0"/>
	<stop  offset="1" style="stop-color:#EEF1F5"/>
</linearGradient>
<path class="st1" d="M18,2H6C4.9,2,4,2.9,4,4v16c0,1.1,0.9,2,2,2h12c1.1,0,2-0.9,2-2V4C20,2.9,19.1,2,18,2z M9,4h2v5l-1-0.8L9,9V4z
	 M18,20H6V4h1v9l3-2.3l3,2.3V4h5V20z"/>
</svg>
