<?xml version="1.0" encoding="utf-8"?>
<!-- Generator: Adobe Illustrator 22.0.1, SVG Export Plug-In . SVG Version: 6.00 Build 0)  -->
<svg version="1.1" id="Layer_1" xmlns="http://www.w3.org/2000/svg" xmlns:xlink="http://www.w3.org/1999/xlink" x="0px" y="0px"
	 viewBox="0 0 24 24" style="enable-background:new 0 0 24 24;" xml:space="preserve">
<style type="text/css">
	.st0{fill:none;}
	.st1{fill:url(#SVGID_1_);}
	.st2{fill:url(#SVGID_2_);}
	.st3{fill:url(#SVGID_3_);}
	.st4{fill:url(#SVGID_4_);}
</style>
<g>
	<rect class="st0" width="24" height="24"/>
</g>
<g>
	<g>
		<linearGradient id="SVGID_1_" gradientUnits="userSpaceOnUse" x1="5.9721" y1="23.7973" x2="17.9558" y2="3.0408">
			<stop  offset="0" style="stop-color:#E6E9F0"/>
			<stop  offset="1" style="stop-color:#EEF1F5"/>
		</linearGradient>
		<path class="st1" d="M21,5c-1.1-0.3-2.3-0.5-3.5-0.5c-1.9,0-4.1,0.4-5.5,1.5c-1.4-1.1-3.6-1.5-5.5-1.5S2.5,4.9,1,6v14.6
			c0,0.3,0.3,0.5,0.5,0.5c0.1,0,0.1,0,0.3,0C3.1,20.5,5.1,20,6.5,20c1.9,0,4.1,0.4,5.5,1.5c1.4-0.9,3.8-1.5,5.5-1.5
			c1.6,0,3.4,0.3,4.8,1c0.1,0,0.1,0,0.3,0c0.3,0,0.5-0.3,0.5-0.5V6C22.4,5.6,21.8,5.3,21,5z M21,18.5c-1.1-0.4-2.3-0.5-3.5-0.5
			c-1.7,0-4.1,0.6-5.5,1.5V8c1.4-0.8,3.8-1.5,5.5-1.5c1.2,0,2.4,0.2,3.5,0.5V18.5z"/>
		<g>
			<linearGradient id="SVGID_2_" gradientUnits="userSpaceOnUse" x1="13" y1="10.245" x2="20" y2="10.245">
				<stop  offset="0" style="stop-color:#E6E9F0"/>
				<stop  offset="1" style="stop-color:#EEF1F5"/>
			</linearGradient>
			<path class="st2" d="M17.5,10.5c0.9,0,1.7,0.1,2.5,0.3V9.2C19.2,9.1,18.4,9,17.5,9c-1.7,0-3.2,0.3-4.5,0.8v1.7
				C14.1,10.9,15.7,10.5,17.5,10.5z"/>
			<linearGradient id="SVGID_3_" gradientUnits="userSpaceOnUse" x1="13" y1="12.905" x2="20" y2="12.905">
				<stop  offset="0" style="stop-color:#E6E9F0"/>
				<stop  offset="1" style="stop-color:#EEF1F5"/>
			</linearGradient>
			<path class="st3" d="M13,12.5v1.7c1.1-0.6,2.7-1,4.5-1c0.9,0,1.7,0.1,2.5,0.3v-1.5c-0.8-0.1-1.6-0.2-2.5-0.2
				C15.8,11.7,14.3,12,13,12.5z"/>
			<linearGradient id="SVGID_4_" gradientUnits="userSpaceOnUse" x1="13" y1="15.575" x2="20" y2="15.575">
				<stop  offset="0" style="stop-color:#E6E9F0"/>
				<stop  offset="1" style="stop-color:#EEF1F5"/>
			</linearGradient>
			<path class="st4" d="M17.5,14.3c-1.7,0-3.2,0.3-4.5,0.8v1.7c1.1-0.6,2.7-1,4.5-1c0.9,0,1.7,0.1,2.5,0.3v-1.5
				C19.2,14.4,18.4,14.3,17.5,14.3z"/>
		</g>
	</g>
</g>
</svg>
