<?xml version="1.0" encoding="utf-8"?>
<!-- Generator: Adobe Illustrator 22.0.1, SVG Export Plug-In . SVG Version: 6.00 Build 0)  -->
<svg version="1.1" xmlns="http://www.w3.org/2000/svg" xmlns:xlink="http://www.w3.org/1999/xlink" x="0px" y="0px"
	 viewBox="0 0 18 18" style="enable-background:new 0 0 18 18;" xml:space="preserve">
<style type="text/css">
	.st0{fill:none;}
	.st1{fill:url(#SVGID_1_);}
	.st2{fill:url(#SVGID_2_);}
	.st3{fill:url(#SVGID_3_);}
	.st4{fill:url(#SVGID_4_);}
</style>
<g id="Layer_1">
	<g>
		<rect class="st0" width="18" height="18"/>
	</g>
	<g>
		<g>
			<g>
				<linearGradient id="SVGID_1_" gradientUnits="userSpaceOnUse" x1="12.493" y1="9.9338" x2="5.507" y2="2.9477">
					<stop  offset="0" style="stop-color:#868F96"/>
					<stop  offset="1" style="stop-color:#596164"/>
				</linearGradient>
				<path class="st1" d="M12.6,9.8H5.4c-0.1,0-0.1-0.1-0.1-0.1V3.9C5.3,3,6,2.3,6.9,2.3h4.3c0.9,0,1.6,0.7,1.6,1.6v5.8
					C12.8,9.7,12.7,9.8,12.6,9.8z"/>
			</g>
		</g>
	</g>
</g>
<g id="Layer_3">
	<linearGradient id="SVGID_2_" gradientUnits="userSpaceOnUse" x1="15.4634" y1="9.7134" x2="13.2866" y2="7.5366">
		<stop  offset="0" style="stop-color:#868F96"/>
		<stop  offset="1" style="stop-color:#596164"/>
	</linearGradient>
	<path class="st2" d="M13.4,7.5h2c0.1,0,0.1,0.1,0.1,0.1v2c0,0.1-0.1,0.1-0.1,0.1h-2c-0.1,0-0.1-0.1-0.1-0.1v-2
		C13.3,7.6,13.3,7.5,13.4,7.5z"/>
	<linearGradient id="SVGID_3_" gradientUnits="userSpaceOnUse" x1="4.7134" y1="9.7134" x2="2.5366" y2="7.5366">
		<stop  offset="0" style="stop-color:#868F96"/>
		<stop  offset="1" style="stop-color:#596164"/>
	</linearGradient>
	<path class="st3" d="M2.6,7.5h2c0.1,0,0.1,0.1,0.1,0.1v2c0,0.1-0.1,0.1-0.1,0.1h-2c-0.1,0-0.1-0.1-0.1-0.1v-2
		C2.5,7.6,2.6,7.5,2.6,7.5z"/>
</g>
<g id="Layer_2">
	<linearGradient id="SVGID_4_" gradientUnits="userSpaceOnUse" x1="12.7955" y1="16.8267" x2="5.2045" y2="9.2358">
		<stop  offset="0" style="stop-color:#868F96"/>
		<stop  offset="1" style="stop-color:#596164"/>
	</linearGradient>
	<path class="st4" d="M3,13v1.1c0,0.6,0.5,1.1,1.1,1.1h0c0.6,0,1.1-0.5,1.1-1.1v0c0-0.6,0.5-1.1,1.1-1.1h5.3c0.6,0,1.1,0.5,1.1,1.1
		v0c0,0.6,0.5,1.1,1.1,1.1h0c0.6,0,1.1-0.5,1.1-1.1v-2.3c0-0.6-0.5-1.1-1.1-1.1H4.1c-0.6,0-1.1,0.5-1.1,1.1V13z"/>
</g>
</svg>
